<svg width="102" height="102" viewBox="0 0 102 102" fill="none" xmlns="http://www.w3.org/2000/svg">
<g clip-path="url(#clip0_124_7)">
<path d="M12.75 12.75H89.25V89.25H12.75V12.75Z" fill="#ECEFF1"/>
<path d="M51 59.0453L89.25 89.25V29.6183L51 59.0453Z" fill="#CFD8DC"/>
<path d="M92.4375 12.75H89.25L51 42.9547L12.75 12.75H9.5625C7.02637 12.75 4.59411 13.7575 2.80079 15.5508C1.00747 17.3441 0 19.7764 0 22.3125L0 79.6875C0 82.2236 1.00747 84.6559 2.80079 86.4492C4.59411 88.2425 7.02637 89.25 9.5625 89.25H12.75V29.6182L51 59.0389L89.25 29.6119V89.25H92.4375C94.9736 89.25 97.4059 88.2425 99.1992 86.4492C100.993 84.6559 102 82.2236 102 79.6875V22.3125C102 19.7764 100.993 17.3441 99.1992 15.5508C97.4059 13.7575 94.9736 12.75 92.4375 12.75Z" fill="#F44336"/>
</g>
<defs>
<clipPath id="clip0_124_7">
<rect width="102" height="102" fill="white"/>
</clipPath>
</defs>
</svg>
