<svg width="90" height="90" viewBox="0 0 90 90" fill="none" xmlns="http://www.w3.org/2000/svg">
<g clip-path="url(#clip0_124_2)">
<path d="M19.9459 54.3881L16.8131 66.0832L5.36291 66.3254C1.94098 59.9785 0 52.7168 0 45C0 37.5379 1.81477 30.501 5.03156 24.3049H5.03402L15.2279 26.1738L19.6935 36.3066C18.7588 39.0314 18.2494 41.9564 18.2494 45C18.2498 48.3033 18.8481 51.4682 19.9459 54.3881Z" fill="#FBBB00"/>
<path d="M89.2137 36.5934C89.7305 39.3155 90 42.1268 90 44.9999C90 48.2217 89.6612 51.3643 89.0159 54.3956C86.8254 64.711 81.1014 73.7184 73.1721 80.0926L73.1696 80.0901L60.3298 79.435L58.5126 68.0909C63.7741 65.0053 67.886 60.1764 70.052 54.3956H45.9893V36.5934H89.2137Z" fill="#518EF8"/>
<path d="M73.1694 80.0902L73.1718 80.0926C65.4601 86.2912 55.6638 90 44.9999 90C27.8628 90 12.9634 80.4215 5.36279 66.3256L19.9458 54.3883C23.746 64.5305 33.5298 71.7504 44.9999 71.7504C49.93 71.7504 54.5488 70.4176 58.5122 68.091L73.1694 80.0902Z" fill="#28B446"/>
<path d="M73.7233 10.3598L59.1452 22.2947C55.0434 19.7307 50.1946 18.2496 44.9999 18.2496C33.2702 18.2496 23.3034 25.8006 19.6936 36.3066L5.03396 24.3049H5.03149C12.5208 9.86537 27.6081 0 44.9999 0C55.9186 0 65.9299 3.88934 73.7233 10.3598Z" fill="#F14336"/>
</g>
<defs>
<clipPath id="clip0_124_2">
<rect width="90" height="90" fill="white"/>
</clipPath>
</defs>
</svg>
