<svg width="382" height="63" viewBox="0 0 382 63" fill="none" xmlns="http://www.w3.org/2000/svg">
<path d="M59.2668 27.4897L58.3311 25.8855L61.8243 23.911C64.6938 22.3479 66.1286 19.8592 66.1286 16.445C66.1286 10.0691 61.2213 6.88111 51.4068 6.88111H45.6679V48.2218H43.7965V5.03004H51.4068C56.8963 5.03004 61.0342 6.03784 63.8205 8.05346C66.6068 10.0279 68 12.8251 68 16.445C68 20.5585 66.2533 23.5819 62.7601 25.5153L59.2668 27.4897Z" fill="url(#paint0_linear_84_184)"/>
<path d="M34.827 58.3723C32.5397 61.4574 28.8385 63 23.7233 63C18.6081 63 14.9069 61.4574 12.6196 58.3723C10.3323 55.2461 9.1887 50.3921 9.1887 43.8105V37.7637C9.1887 31.1821 10.3323 26.3487 12.6196 23.2636C14.9069 20.1374 18.6081 18.5742 23.7233 18.5742C28.8385 18.5742 32.5397 20.1374 34.827 23.2636C37.1143 26.3487 38.2579 31.1821 38.2579 37.7637V43.8105C38.2579 50.3921 37.1143 55.2461 34.827 58.3723ZM28.9632 21.2274C27.5077 20.6927 25.7611 20.4253 23.7233 20.4253C21.6855 20.4253 19.9389 20.6927 18.4834 21.2274C17.0278 21.7211 15.7178 22.5849 14.5534 23.8189C13.389 25.053 12.5156 26.8424 11.9334 29.1871C11.3512 31.4906 11.0601 34.3495 11.0601 37.7637V43.8105C11.0601 47.2247 11.3512 50.1042 11.9334 52.4489C12.5156 54.7524 13.389 56.5212 14.5534 57.7553C15.7178 58.9893 17.0278 59.8737 18.4834 60.4085C19.9389 60.9021 21.6855 61.1489 23.7233 61.1489C25.7611 61.1489 27.5077 60.9021 28.9632 60.4085C30.4188 59.8737 31.7288 58.9893 32.8932 57.7553C34.0576 56.5212 34.931 54.7524 35.5132 52.4489C36.0954 50.1042 36.3865 47.2247 36.3865 43.8105V37.7637C36.3865 34.3495 36.0954 31.4906 35.5132 29.1871C34.931 26.8424 34.0576 25.053 32.8932 23.8189C31.7288 22.5849 30.4188 21.7211 28.9632 21.2274Z" fill="url(#paint1_linear_84_184)"/>
<path d="M46.8193 5C50.3898 6.3995 53.159 8.39379 55.1269 10.9829C57.0948 13.5719 58.1079 17.4767 58.1661 22.6971C58.2392 29.2493 56.2725 34.0124 52.266 36.9863C48.2057 39.9608 41.8671 41.4951 33.2503 41.5891L25.3336 41.6755C16.7168 41.7695 10.3725 40.3737 6.3007 37.4879C2.17504 34.6027 0.0756629 29.884 0.00258413 23.3318C-0.0556413 18.1114 0.870082 14.1855 2.77975 11.5541C4.68942 8.9227 7.41346 6.86847 10.9518 5.3914L12.0261 7.53737C8.91616 8.79666 6.53891 10.5541 4.89436 12.8096C3.19595 15.0658 2.37319 18.5644 2.42607 23.3054C2.45518 25.9156 2.83019 28.1491 3.5511 30.0059C4.21815 31.8633 5.36783 33.529 7.00012 35.0029C8.63241 36.4769 10.9876 37.57 14.0656 38.2822C17.0898 38.9951 20.8369 39.3271 25.3069 39.2784L33.2236 39.192C37.6936 39.1432 41.4593 38.7292 44.5207 37.9499C47.5283 37.1712 49.8315 36.0273 51.4306 34.5181C53.0296 33.0089 54.1688 31.3183 54.8481 29.4462C55.4735 27.5747 55.7717 25.3338 55.7426 22.7236C55.6897 17.9826 54.8161 14.5025 53.1216 12.2834C51.3733 10.0648 48.9305 8.36002 45.7932 7.16889L46.8193 5Z" fill="url(#paint2_linear_84_184)"/>
<path d="M100.348 12.482C100.348 11.5113 100.019 10.6967 99.36 10.038C98.7187 9.362 97.7827 9.024 96.552 9.024H93.432V16.018H94.758C95.7633 16.018 96.552 15.9747 97.124 15.888C97.7133 15.8013 98.242 15.628 98.71 15.368C99.1953 15.108 99.5767 14.7787 99.854 14.38C100.131 13.9813 100.296 13.3487 100.348 12.482ZM93.432 24.754C93.432 24.9967 93.3107 25.118 93.068 25.118H91.924C91.6813 25.118 91.56 24.9967 91.56 24.754V8.166C91.56 7.78467 91.5947 7.55933 91.664 7.49C91.7507 7.42067 91.976 7.386 92.34 7.386H96.162C98.0687 7.386 99.5593 7.84533 100.634 8.764C101.743 9.71733 102.298 10.9567 102.298 12.482C102.298 13.3833 102.133 14.1287 101.804 14.718C101.492 15.3073 101.041 15.836 100.452 16.304C99.88 16.7547 99.204 17.0927 98.424 17.318C97.644 17.5433 96.8207 17.656 95.954 17.656H93.432V24.754ZM110.904 23.506C111.147 23.506 111.268 23.6273 111.268 23.87V24.754C111.268 24.9967 111.147 25.118 110.904 25.118H105.054C104.811 25.118 104.69 24.9967 104.69 24.754V23.87C104.69 23.6273 104.811 23.506 105.054 23.506H106.588V13.704H104.586C104.343 13.704 104.222 13.5827 104.222 13.34V12.456C104.222 12.2133 104.343 12.092 104.586 12.092H107.732C107.975 12.092 108.096 12.2133 108.096 12.456V15.004C109.153 12.82 110.679 11.728 112.672 11.728C113.695 11.728 114.613 11.9273 115.428 12.326C115.601 12.3953 115.697 12.482 115.714 12.586C115.731 12.69 115.714 12.8027 115.662 12.924L115.35 13.86C115.298 13.9813 115.229 14.042 115.142 14.042C115.073 14.0247 114.977 13.9813 114.856 13.912C114.093 13.548 113.279 13.366 112.412 13.366C110.991 13.4353 109.864 14.2067 109.032 15.68C108.564 16.5813 108.33 17.76 108.33 19.216V23.506H110.904ZM126.114 18.592C126.114 17.916 126.036 17.2487 125.88 16.59C125.724 15.9313 125.481 15.3333 125.152 14.796C124.493 13.756 123.601 13.236 122.474 13.236C121.295 13.236 120.403 13.756 119.796 14.796C119.467 15.3333 119.224 15.9313 119.068 16.59C118.929 17.2487 118.86 17.916 118.86 18.592C118.86 19.3373 118.929 20.0393 119.068 20.698C119.207 21.3567 119.449 21.92 119.796 22.388C120.559 23.4453 121.451 23.974 122.474 23.974C123.67 23.974 124.563 23.4453 125.152 22.388C125.499 21.92 125.741 21.3567 125.88 20.698C126.036 20.0393 126.114 19.3373 126.114 18.592ZM127.908 18.592C127.908 19.5453 127.795 20.4467 127.57 21.296C127.362 22.128 127.033 22.83 126.582 23.402C126.062 24.078 125.464 24.598 124.788 24.962C124.112 25.3433 123.341 25.534 122.474 25.534C121.607 25.534 120.836 25.3433 120.16 24.962C119.484 24.598 118.886 24.078 118.366 23.402C117.95 22.778 117.629 22.0587 117.404 21.244C117.196 20.4293 117.092 19.5453 117.092 18.592C117.092 16.6333 117.517 15.03 118.366 13.782C119.354 12.378 120.723 11.676 122.474 11.676C123.358 11.676 124.129 11.8493 124.788 12.196C125.464 12.5253 126.062 13.054 126.582 13.782C127.466 15.0473 127.908 16.6507 127.908 18.592ZM139.114 18.592C139.114 17.916 139.036 17.2487 138.88 16.59C138.724 15.9313 138.481 15.3333 138.152 14.796C137.493 13.756 136.601 13.236 135.474 13.236C134.295 13.236 133.403 13.756 132.796 14.796C132.467 15.3333 132.224 15.9313 132.068 16.59C131.929 17.2487 131.86 17.916 131.86 18.592C131.86 19.3373 131.929 20.0393 132.068 20.698C132.207 21.3567 132.449 21.92 132.796 22.388C133.559 23.4453 134.451 23.974 135.474 23.974C136.67 23.974 137.563 23.4453 138.152 22.388C138.499 21.92 138.741 21.3567 138.88 20.698C139.036 20.0393 139.114 19.3373 139.114 18.592ZM140.908 18.592C140.908 19.5453 140.795 20.4467 140.57 21.296C140.362 22.128 140.033 22.83 139.582 23.402C139.062 24.078 138.464 24.598 137.788 24.962C137.112 25.3433 136.341 25.534 135.474 25.534C134.607 25.534 133.836 25.3433 133.16 24.962C132.484 24.598 131.886 24.078 131.366 23.402C130.95 22.778 130.629 22.0587 130.404 21.244C130.196 20.4293 130.092 19.5453 130.092 18.592C130.092 16.6333 130.517 15.03 131.366 13.782C132.354 12.378 133.723 11.676 135.474 11.676C136.358 11.676 137.129 11.8493 137.788 12.196C138.464 12.5253 139.062 13.054 139.582 13.782C140.466 15.0473 140.908 16.6507 140.908 18.592ZM152.946 6.034C153.137 6.12067 153.223 6.242 153.206 6.398L153.05 7.308C153.033 7.412 152.989 7.48133 152.92 7.516C152.851 7.53333 152.781 7.52467 152.712 7.49C152.435 7.36867 152.131 7.27333 151.802 7.204C151.49 7.13467 151.169 7.1 150.84 7.1C149.817 7.1 149.159 7.61133 148.864 8.634C148.743 9.05 148.682 9.96 148.682 11.364V12.69H153.232C153.475 12.69 153.596 12.8113 153.596 13.054V13.834C153.596 14.0767 153.475 14.198 153.232 14.198H148.682V24.754C148.682 24.9967 148.561 25.118 148.318 25.118H147.304C147.061 25.118 146.94 24.9967 146.94 24.754V14.198H143.794C143.551 14.198 143.43 14.0767 143.43 13.834V13.054C143.43 12.8113 143.551 12.69 143.794 12.69H146.94V11.546C146.94 9.65667 147.113 8.296 147.46 7.464C147.997 6.216 149.072 5.592 150.684 5.592C151.499 5.592 152.253 5.73933 152.946 6.034ZM178.114 18.592C178.114 17.916 178.036 17.2487 177.88 16.59C177.724 15.9313 177.481 15.3333 177.152 14.796C176.493 13.756 175.601 13.236 174.474 13.236C173.295 13.236 172.403 13.756 171.796 14.796C171.467 15.3333 171.224 15.9313 171.068 16.59C170.929 17.2487 170.86 17.916 170.86 18.592C170.86 19.3373 170.929 20.0393 171.068 20.698C171.207 21.3567 171.449 21.92 171.796 22.388C172.559 23.4453 173.451 23.974 174.474 23.974C175.67 23.974 176.563 23.4453 177.152 22.388C177.499 21.92 177.741 21.3567 177.88 20.698C178.036 20.0393 178.114 19.3373 178.114 18.592ZM179.908 18.592C179.908 19.5453 179.795 20.4467 179.57 21.296C179.362 22.128 179.033 22.83 178.582 23.402C178.062 24.078 177.464 24.598 176.788 24.962C176.112 25.3433 175.341 25.534 174.474 25.534C173.607 25.534 172.836 25.3433 172.16 24.962C171.484 24.598 170.886 24.078 170.366 23.402C169.95 22.778 169.629 22.0587 169.404 21.244C169.196 20.4293 169.092 19.5453 169.092 18.592C169.092 16.6333 169.517 15.03 170.366 13.782C171.354 12.378 172.723 11.676 174.474 11.676C175.358 11.676 176.129 11.8493 176.788 12.196C177.464 12.5253 178.062 13.054 178.582 13.782C179.466 15.0473 179.908 16.6507 179.908 18.592ZM191.946 6.034C192.137 6.12067 192.223 6.242 192.206 6.398L192.05 7.308C192.033 7.412 191.989 7.48133 191.92 7.516C191.851 7.53333 191.781 7.52467 191.712 7.49C191.435 7.36867 191.131 7.27333 190.802 7.204C190.49 7.13467 190.169 7.1 189.84 7.1C188.817 7.1 188.159 7.61133 187.864 8.634C187.743 9.05 187.682 9.96 187.682 11.364V12.69H192.232C192.475 12.69 192.596 12.8113 192.596 13.054V13.834C192.596 14.0767 192.475 14.198 192.232 14.198H187.682V24.754C187.682 24.9967 187.561 25.118 187.318 25.118H186.304C186.061 25.118 185.94 24.9967 185.94 24.754V14.198H182.794C182.551 14.198 182.43 14.0767 182.43 13.834V13.054C182.43 12.8113 182.551 12.69 182.794 12.69H185.94V11.546C185.94 9.65667 186.113 8.296 186.46 7.464C186.997 6.216 188.072 5.592 189.684 5.592C190.499 5.592 191.253 5.73933 191.946 6.034ZM217.894 23.168C217.981 23.1333 218.05 23.1333 218.102 23.168C218.171 23.1853 218.206 23.246 218.206 23.35L218.258 24.364C218.275 24.5893 218.18 24.7453 217.972 24.832C217.539 25.0227 217.097 25.1613 216.646 25.248C216.195 25.3347 215.736 25.378 215.268 25.378C213.171 25.378 211.463 24.4593 210.146 22.622C209.557 21.7207 209.115 20.7153 208.82 19.606C208.543 18.4793 208.404 17.344 208.404 16.2C208.404 15.16 208.543 14.0853 208.82 12.976C209.115 11.8493 209.557 10.8353 210.146 9.934C211.463 8.09667 213.171 7.178 215.268 7.178C215.736 7.178 216.195 7.22133 216.646 7.308C217.097 7.39467 217.539 7.53333 217.972 7.724C218.18 7.81067 218.275 7.96667 218.258 8.192L218.206 9.206C218.206 9.31 218.171 9.37933 218.102 9.414C218.05 9.43133 217.981 9.42267 217.894 9.388C217.495 9.21467 217.088 9.076 216.672 8.972C216.273 8.868 215.805 8.816 215.268 8.816C213.777 8.816 212.538 9.58733 211.55 11.13C211.099 11.8753 210.761 12.716 210.536 13.652C210.328 14.5707 210.224 15.42 210.224 16.2C210.224 17.084 210.328 17.994 210.536 18.93C210.761 19.8487 211.099 20.6807 211.55 21.426C212.538 22.9687 213.777 23.74 215.268 23.74C215.857 23.74 216.343 23.688 216.724 23.584C217.105 23.48 217.495 23.3413 217.894 23.168ZM229.984 17.76C229.984 17.2227 229.915 16.6767 229.776 16.122C229.655 15.5673 229.464 15.082 229.204 14.666C228.597 13.6607 227.731 13.158 226.604 13.158C225.477 13.158 224.593 13.6693 223.952 14.692C223.657 15.1947 223.432 15.7147 223.276 16.252C223.12 16.7893 223.033 17.292 223.016 17.76H229.984ZM222.99 19.242C222.973 19.7967 223.068 20.4033 223.276 21.062C223.501 21.7033 223.805 22.232 224.186 22.648C224.567 23.0467 225.001 23.3673 225.486 23.61C225.971 23.8527 226.561 23.974 227.254 23.974C227.861 23.974 228.424 23.9133 228.944 23.792C229.464 23.6707 229.984 23.4713 230.504 23.194C230.712 23.1073 230.825 23.168 230.842 23.376V24.572C230.842 24.7107 230.747 24.8233 230.556 24.91C230.019 25.118 229.49 25.274 228.97 25.378C228.467 25.482 227.852 25.534 227.124 25.534C225.269 25.534 223.796 24.9187 222.704 23.688C221.612 22.44 221.066 20.7673 221.066 18.67C221.066 16.7633 221.603 15.0993 222.678 13.678C223.805 12.3433 225.122 11.676 226.63 11.676C227.566 11.676 228.337 11.8407 228.944 12.17C229.568 12.4993 230.123 13.002 230.608 13.678C231.475 14.8393 231.908 16.4167 231.908 18.41C231.908 18.618 231.899 18.7827 231.882 18.904C231.882 19.008 231.856 19.086 231.804 19.138C231.752 19.19 231.657 19.2247 231.518 19.242C231.397 19.242 231.215 19.242 230.972 19.242H222.99ZM240.904 23.506C241.147 23.506 241.268 23.6273 241.268 23.87V24.754C241.268 24.9967 241.147 25.118 240.904 25.118H235.054C234.811 25.118 234.69 24.9967 234.69 24.754V23.87C234.69 23.6273 234.811 23.506 235.054 23.506H236.588V13.704H234.586C234.343 13.704 234.222 13.5827 234.222 13.34V12.456C234.222 12.2133 234.343 12.092 234.586 12.092H237.732C237.975 12.092 238.096 12.2133 238.096 12.456V15.004C239.153 12.82 240.679 11.728 242.672 11.728C243.695 11.728 244.613 11.9273 245.428 12.326C245.601 12.3953 245.697 12.482 245.714 12.586C245.731 12.69 245.714 12.8027 245.662 12.924L245.35 13.86C245.298 13.9813 245.229 14.042 245.142 14.042C245.073 14.0247 244.977 13.9813 244.856 13.912C244.093 13.548 243.279 13.366 242.412 13.366C240.991 13.4353 239.864 14.2067 239.032 15.68C238.564 16.5813 238.33 17.76 238.33 19.216V23.506H240.904ZM257.102 25.092C256.374 25.3867 255.525 25.534 254.554 25.534C252.977 25.534 251.963 25.0747 251.512 24.156C251.217 23.532 251.07 22.4313 251.07 20.854V14.198H247.69C247.447 14.198 247.326 14.0767 247.326 13.834V13.054C247.326 12.8113 247.447 12.69 247.69 12.69H251.07V9.024C251.07 8.764 251.183 8.634 251.408 8.634H252.5C252.725 8.634 252.838 8.764 252.838 9.024V12.69H257.024C257.267 12.69 257.388 12.8113 257.388 13.054V13.834C257.388 14.0767 257.267 14.198 257.024 14.198H252.838V22.024C252.838 23.324 253.549 23.974 254.97 23.974C255.681 23.974 256.357 23.8267 256.998 23.532C257.085 23.4973 257.163 23.4973 257.232 23.532C257.319 23.5667 257.362 23.636 257.362 23.74L257.414 24.572C257.449 24.8147 257.345 24.988 257.102 25.092ZM269.79 23.506C270.033 23.506 270.154 23.6273 270.154 23.87V24.754C270.154 24.9967 270.033 25.118 269.79 25.118H261.496C261.253 25.118 261.132 24.9967 261.132 24.754V23.87C261.132 23.6273 261.253 23.506 261.496 23.506H264.824V13.704H261.782C261.539 13.704 261.418 13.5827 261.418 13.34V12.456C261.418 12.2133 261.539 12.092 261.782 12.092H266.332C266.575 12.092 266.696 12.2133 266.696 12.456V23.506H269.79ZM264.018 7.88C264.018 7.48133 264.157 7.14333 264.434 6.866C264.729 6.57133 265.075 6.424 265.474 6.424C265.873 6.424 266.211 6.57133 266.488 6.866C266.783 7.14333 266.93 7.48133 266.93 7.88C266.93 8.27867 266.783 8.62533 266.488 8.92C266.211 9.19733 265.873 9.336 265.474 9.336C265.075 9.336 264.729 9.19733 264.434 8.92C264.157 8.62533 264.018 8.27867 264.018 7.88ZM282.946 6.034C283.137 6.12067 283.223 6.242 283.206 6.398L283.05 7.308C283.033 7.412 282.989 7.48133 282.92 7.516C282.851 7.53333 282.781 7.52467 282.712 7.49C282.435 7.36867 282.131 7.27333 281.802 7.204C281.49 7.13467 281.169 7.1 280.84 7.1C279.817 7.1 279.159 7.61133 278.864 8.634C278.743 9.05 278.682 9.96 278.682 11.364V12.69H283.232C283.475 12.69 283.596 12.8113 283.596 13.054V13.834C283.596 14.0767 283.475 14.198 283.232 14.198H278.682V24.754C278.682 24.9967 278.561 25.118 278.318 25.118H277.304C277.061 25.118 276.94 24.9967 276.94 24.754V14.198H273.794C273.551 14.198 273.43 14.0767 273.43 13.834V13.054C273.43 12.8113 273.551 12.69 273.794 12.69H276.94V11.546C276.94 9.65667 277.113 8.296 277.46 7.464C277.997 6.216 279.072 5.592 280.684 5.592C281.499 5.592 282.253 5.73933 282.946 6.034ZM295.79 23.506C296.033 23.506 296.154 23.6273 296.154 23.87V24.754C296.154 24.9967 296.033 25.118 295.79 25.118H287.496C287.253 25.118 287.132 24.9967 287.132 24.754V23.87C287.132 23.6273 287.253 23.506 287.496 23.506H290.824V13.704H287.782C287.539 13.704 287.418 13.5827 287.418 13.34V12.456C287.418 12.2133 287.539 12.092 287.782 12.092H292.332C292.575 12.092 292.696 12.2133 292.696 12.456V23.506H295.79ZM290.018 7.88C290.018 7.48133 290.157 7.14333 290.434 6.866C290.729 6.57133 291.075 6.424 291.474 6.424C291.873 6.424 292.211 6.57133 292.488 6.866C292.783 7.14333 292.93 7.48133 292.93 7.88C292.93 8.27867 292.783 8.62533 292.488 8.92C292.211 9.19733 291.873 9.336 291.474 9.336C291.075 9.336 290.729 9.19733 290.434 8.92C290.157 8.62533 290.018 8.27867 290.018 7.88ZM308.66 25.17C308.192 25.2913 307.767 25.3693 307.386 25.404C307.005 25.456 306.519 25.482 305.93 25.482C304.925 25.482 304.023 25.3 303.226 24.936C302.446 24.5893 301.761 24.104 301.172 23.48C300.583 22.856 300.141 22.128 299.846 21.296C299.551 20.4467 299.404 19.5367 299.404 18.566C299.404 17.578 299.56 16.668 299.872 15.836C300.184 15.004 300.626 14.2847 301.198 13.678C301.77 13.0713 302.446 12.5947 303.226 12.248C304.023 11.884 304.925 11.702 305.93 11.702C306.467 11.702 306.935 11.728 307.334 11.78C307.733 11.8147 308.183 11.8927 308.686 12.014C308.911 12.066 309.015 12.2133 308.998 12.456L308.92 13.34C308.885 13.548 308.764 13.626 308.556 13.574C308.14 13.4353 307.741 13.34 307.36 13.288C306.996 13.2187 306.597 13.184 306.164 13.184C305.436 13.184 304.751 13.3313 304.11 13.626C303.486 13.9033 302.975 14.2847 302.576 14.77C302.177 15.2553 301.865 15.8273 301.64 16.486C301.432 17.1273 301.328 17.8207 301.328 18.566C301.328 19.242 301.441 19.9093 301.666 20.568C301.891 21.2093 302.195 21.79 302.576 22.31C302.975 22.8127 303.486 23.22 304.11 23.532C304.751 23.844 305.436 24 306.164 24C306.597 24 306.987 23.974 307.334 23.922C307.681 23.87 308.079 23.766 308.53 23.61C308.721 23.558 308.851 23.6187 308.92 23.792L308.998 24.728C309.015 24.9707 308.903 25.118 308.66 25.17ZM320.62 18.306H320.126C319.155 18.2713 318.341 18.306 317.682 18.41C317.023 18.514 316.46 18.6787 315.992 18.904C315.42 19.1467 314.978 19.528 314.666 20.048C314.354 20.5507 314.198 21.0707 314.198 21.608C314.198 21.92 314.267 22.258 314.406 22.622C314.545 22.9687 314.761 23.2373 315.056 23.428C315.559 23.844 316.122 24.052 316.746 24.052C317.353 24.052 317.855 23.9393 318.254 23.714C318.653 23.4713 319.043 23.1073 319.424 22.622C319.805 22.1193 320.1 21.556 320.308 20.932C320.516 20.308 320.62 19.7013 320.62 19.112V18.306ZM313.938 14.25C313.851 14.302 313.765 14.3193 313.678 14.302C313.609 14.2673 313.574 14.2067 313.574 14.12V13.106C313.574 12.8807 313.695 12.716 313.938 12.612C314.527 12.2653 315.125 12.0227 315.732 11.884C316.356 11.7453 317.023 11.676 317.734 11.676C319.242 11.6413 320.395 12.0747 321.192 12.976C321.989 13.8773 322.388 14.9953 322.388 16.33V22.388C322.388 22.8733 322.397 23.3067 322.414 23.688C322.431 24.0693 322.457 24.4333 322.492 24.78C322.492 25.0053 322.371 25.118 322.128 25.118H321.192C320.949 25.118 320.828 25.0053 320.828 24.78V22.934C320.464 23.7487 319.909 24.3813 319.164 24.832C318.419 25.3 317.543 25.534 316.538 25.534C315.047 25.534 313.895 25.0487 313.08 24.078C312.803 23.766 312.595 23.3933 312.456 22.96C312.317 22.5267 312.248 22.102 312.248 21.686C312.248 20.7847 312.491 19.9613 312.976 19.216C313.479 18.4533 314.241 17.8813 315.264 17.5C316.252 17.0493 317.925 16.824 320.282 16.824H320.62V16.226C320.62 15.342 320.369 14.614 319.866 14.042C319.381 13.4527 318.67 13.158 317.734 13.158C316.989 13.158 316.321 13.2447 315.732 13.418C315.16 13.574 314.562 13.8513 313.938 14.25ZM335.102 25.092C334.374 25.3867 333.525 25.534 332.554 25.534C330.977 25.534 329.963 25.0747 329.512 24.156C329.217 23.532 329.07 22.4313 329.07 20.854V14.198H325.69C325.447 14.198 325.326 14.0767 325.326 13.834V13.054C325.326 12.8113 325.447 12.69 325.69 12.69H329.07V9.024C329.07 8.764 329.183 8.634 329.408 8.634H330.5C330.725 8.634 330.838 8.764 330.838 9.024V12.69H335.024C335.267 12.69 335.388 12.8113 335.388 13.054V13.834C335.388 14.0767 335.267 14.198 335.024 14.198H330.838V22.024C330.838 23.324 331.549 23.974 332.97 23.974C333.681 23.974 334.357 23.8267 334.998 23.532C335.085 23.4973 335.163 23.4973 335.232 23.532C335.319 23.5667 335.362 23.636 335.362 23.74L335.414 24.572C335.449 24.8147 335.345 24.988 335.102 25.092ZM347.79 23.506C348.033 23.506 348.154 23.6273 348.154 23.87V24.754C348.154 24.9967 348.033 25.118 347.79 25.118H339.496C339.253 25.118 339.132 24.9967 339.132 24.754V23.87C339.132 23.6273 339.253 23.506 339.496 23.506H342.824V13.704H339.782C339.539 13.704 339.418 13.5827 339.418 13.34V12.456C339.418 12.2133 339.539 12.092 339.782 12.092H344.332C344.575 12.092 344.696 12.2133 344.696 12.456V23.506H347.79ZM342.018 7.88C342.018 7.48133 342.157 7.14333 342.434 6.866C342.729 6.57133 343.075 6.424 343.474 6.424C343.873 6.424 344.211 6.57133 344.488 6.866C344.783 7.14333 344.93 7.48133 344.93 7.88C344.93 8.27867 344.783 8.62533 344.488 8.92C344.211 9.19733 343.873 9.336 343.474 9.336C343.075 9.336 342.729 9.19733 342.434 8.92C342.157 8.62533 342.018 8.27867 342.018 7.88ZM360.114 18.592C360.114 17.916 360.036 17.2487 359.88 16.59C359.724 15.9313 359.481 15.3333 359.152 14.796C358.493 13.756 357.601 13.236 356.474 13.236C355.295 13.236 354.403 13.756 353.796 14.796C353.467 15.3333 353.224 15.9313 353.068 16.59C352.929 17.2487 352.86 17.916 352.86 18.592C352.86 19.3373 352.929 20.0393 353.068 20.698C353.207 21.3567 353.449 21.92 353.796 22.388C354.559 23.4453 355.451 23.974 356.474 23.974C357.67 23.974 358.563 23.4453 359.152 22.388C359.499 21.92 359.741 21.3567 359.88 20.698C360.036 20.0393 360.114 19.3373 360.114 18.592ZM361.908 18.592C361.908 19.5453 361.795 20.4467 361.57 21.296C361.362 22.128 361.033 22.83 360.582 23.402C360.062 24.078 359.464 24.598 358.788 24.962C358.112 25.3433 357.341 25.534 356.474 25.534C355.607 25.534 354.836 25.3433 354.16 24.962C353.484 24.598 352.886 24.078 352.366 23.402C351.95 22.778 351.629 22.0587 351.404 21.244C351.196 20.4293 351.092 19.5453 351.092 18.592C351.092 16.6333 351.517 15.03 352.366 13.782C353.354 12.378 354.723 11.676 356.474 11.676C357.358 11.676 358.129 11.8493 358.788 12.196C359.464 12.5253 360.062 13.054 360.582 13.782C361.466 15.0473 361.908 16.6507 361.908 18.592ZM374.362 24.754C374.362 24.9967 374.241 25.118 373.998 25.118H372.958C372.715 25.118 372.594 24.9967 372.594 24.754V17.604C372.594 16.0093 372.377 14.8827 371.944 14.224C371.511 13.548 370.774 13.21 369.734 13.21C368.815 13.21 368.044 13.5827 367.42 14.328C366.796 15.056 366.484 16.1653 366.484 17.656V24.754C366.484 24.9967 366.363 25.118 366.12 25.118H365.08C364.837 25.118 364.716 24.9967 364.716 24.754V15.394C364.716 14.6487 364.707 14.068 364.69 13.652C364.69 13.236 364.673 12.8373 364.638 12.456C364.621 12.3347 364.647 12.248 364.716 12.196C364.803 12.1267 364.898 12.092 365.002 12.092H365.938C366.181 12.092 366.302 12.2133 366.302 12.456V13.912C366.718 13.1667 367.221 12.6207 367.81 12.274C368.417 11.91 369.11 11.728 369.89 11.728C371.415 11.728 372.542 12.2047 373.27 13.158C373.998 14.1113 374.362 15.4547 374.362 17.188V24.754ZM100.348 45.482C100.348 44.5113 100.019 43.6967 99.36 43.038C98.7187 42.362 97.7827 42.024 96.552 42.024H93.432V49.018H94.758C95.7633 49.018 96.552 48.9747 97.124 48.888C97.7133 48.8013 98.242 48.628 98.71 48.368C99.1953 48.108 99.5767 47.7787 99.854 47.38C100.131 46.9813 100.296 46.3487 100.348 45.482ZM93.432 57.754C93.432 57.9967 93.3107 58.118 93.068 58.118H91.924C91.6813 58.118 91.56 57.9967 91.56 57.754V41.166C91.56 40.7847 91.5947 40.5593 91.664 40.49C91.7507 40.4207 91.976 40.386 92.34 40.386H96.162C98.0687 40.386 99.5593 40.8453 100.634 41.764C101.743 42.7173 102.298 43.9567 102.298 45.482C102.298 46.3833 102.133 47.1287 101.804 47.718C101.492 48.3073 101.041 48.836 100.452 49.304C99.88 49.7547 99.204 50.0927 98.424 50.318C97.644 50.5433 96.8207 50.656 95.954 50.656H93.432V57.754ZM110.904 56.506C111.147 56.506 111.268 56.6273 111.268 56.87V57.754C111.268 57.9967 111.147 58.118 110.904 58.118H105.054C104.811 58.118 104.69 57.9967 104.69 57.754V56.87C104.69 56.6273 104.811 56.506 105.054 56.506H106.588V46.704H104.586C104.343 46.704 104.222 46.5827 104.222 46.34V45.456C104.222 45.2133 104.343 45.092 104.586 45.092H107.732C107.975 45.092 108.096 45.2133 108.096 45.456V48.004C109.153 45.82 110.679 44.728 112.672 44.728C113.695 44.728 114.613 44.9273 115.428 45.326C115.601 45.3953 115.697 45.482 115.714 45.586C115.731 45.69 115.714 45.8027 115.662 45.924L115.35 46.86C115.298 46.9813 115.229 47.042 115.142 47.042C115.073 47.0247 114.977 46.9813 114.856 46.912C114.093 46.548 113.279 46.366 112.412 46.366C110.991 46.4353 109.864 47.2067 109.032 48.68C108.564 49.5813 108.33 50.76 108.33 52.216V56.506H110.904ZM126.114 51.592C126.114 50.916 126.036 50.2487 125.88 49.59C125.724 48.9313 125.481 48.3333 125.152 47.796C124.493 46.756 123.601 46.236 122.474 46.236C121.295 46.236 120.403 46.756 119.796 47.796C119.467 48.3333 119.224 48.9313 119.068 49.59C118.929 50.2487 118.86 50.916 118.86 51.592C118.86 52.3373 118.929 53.0393 119.068 53.698C119.207 54.3567 119.449 54.92 119.796 55.388C120.559 56.4453 121.451 56.974 122.474 56.974C123.67 56.974 124.563 56.4453 125.152 55.388C125.499 54.92 125.741 54.3567 125.88 53.698C126.036 53.0393 126.114 52.3373 126.114 51.592ZM127.908 51.592C127.908 52.5453 127.795 53.4467 127.57 54.296C127.362 55.128 127.033 55.83 126.582 56.402C126.062 57.078 125.464 57.598 124.788 57.962C124.112 58.3433 123.341 58.534 122.474 58.534C121.607 58.534 120.836 58.3433 120.16 57.962C119.484 57.598 118.886 57.078 118.366 56.402C117.95 55.778 117.629 55.0587 117.404 54.244C117.196 53.4293 117.092 52.5453 117.092 51.592C117.092 49.6333 117.517 48.03 118.366 46.782C119.354 45.378 120.723 44.676 122.474 44.676C123.358 44.676 124.129 44.8493 124.788 45.196C125.464 45.5253 126.062 46.054 126.582 46.782C127.466 48.0473 127.908 49.6507 127.908 51.592ZM140.102 58.092C139.374 58.3867 138.525 58.534 137.554 58.534C135.977 58.534 134.963 58.0747 134.512 57.156C134.217 56.532 134.07 55.4313 134.07 53.854V47.198H130.69C130.447 47.198 130.326 47.0767 130.326 46.834V46.054C130.326 45.8113 130.447 45.69 130.69 45.69H134.07V42.024C134.07 41.764 134.183 41.634 134.408 41.634H135.5C135.725 41.634 135.838 41.764 135.838 42.024V45.69H140.024C140.267 45.69 140.388 45.8113 140.388 46.054V46.834C140.388 47.0767 140.267 47.198 140.024 47.198H135.838V55.024C135.838 56.324 136.549 56.974 137.97 56.974C138.681 56.974 139.357 56.8267 139.998 56.532C140.085 56.4973 140.163 56.4973 140.232 56.532C140.319 56.5667 140.362 56.636 140.362 56.74L140.414 57.572C140.449 57.8147 140.345 57.988 140.102 58.092ZM152.114 51.592C152.114 50.916 152.036 50.2487 151.88 49.59C151.724 48.9313 151.481 48.3333 151.152 47.796C150.493 46.756 149.601 46.236 148.474 46.236C147.295 46.236 146.403 46.756 145.796 47.796C145.467 48.3333 145.224 48.9313 145.068 49.59C144.929 50.2487 144.86 50.916 144.86 51.592C144.86 52.3373 144.929 53.0393 145.068 53.698C145.207 54.3567 145.449 54.92 145.796 55.388C146.559 56.4453 147.451 56.974 148.474 56.974C149.67 56.974 150.563 56.4453 151.152 55.388C151.499 54.92 151.741 54.3567 151.88 53.698C152.036 53.0393 152.114 52.3373 152.114 51.592ZM153.908 51.592C153.908 52.5453 153.795 53.4467 153.57 54.296C153.362 55.128 153.033 55.83 152.582 56.402C152.062 57.078 151.464 57.598 150.788 57.962C150.112 58.3433 149.341 58.534 148.474 58.534C147.607 58.534 146.836 58.3433 146.16 57.962C145.484 57.598 144.886 57.078 144.366 56.402C143.95 55.778 143.629 55.0587 143.404 54.244C143.196 53.4293 143.092 52.5453 143.092 51.592C143.092 49.6333 143.517 48.03 144.366 46.782C145.354 45.378 146.723 44.676 148.474 44.676C149.358 44.676 150.129 44.8493 150.788 45.196C151.464 45.5253 152.062 46.054 152.582 46.782C153.466 48.0473 153.908 49.6507 153.908 51.592ZM165.66 58.17C165.192 58.2913 164.767 58.3693 164.386 58.404C164.005 58.456 163.519 58.482 162.93 58.482C161.925 58.482 161.023 58.3 160.226 57.936C159.446 57.5893 158.761 57.104 158.172 56.48C157.583 55.856 157.141 55.128 156.846 54.296C156.551 53.4467 156.404 52.5367 156.404 51.566C156.404 50.578 156.56 49.668 156.872 48.836C157.184 48.004 157.626 47.2847 158.198 46.678C158.77 46.0713 159.446 45.5947 160.226 45.248C161.023 44.884 161.925 44.702 162.93 44.702C163.467 44.702 163.935 44.728 164.334 44.78C164.733 44.8147 165.183 44.8927 165.686 45.014C165.911 45.066 166.015 45.2133 165.998 45.456L165.92 46.34C165.885 46.548 165.764 46.626 165.556 46.574C165.14 46.4353 164.741 46.34 164.36 46.288C163.996 46.2187 163.597 46.184 163.164 46.184C162.436 46.184 161.751 46.3313 161.11 46.626C160.486 46.9033 159.975 47.2847 159.576 47.77C159.177 48.2553 158.865 48.8273 158.64 49.486C158.432 50.1273 158.328 50.8207 158.328 51.566C158.328 52.242 158.441 52.9093 158.666 53.568C158.891 54.2093 159.195 54.79 159.576 55.31C159.975 55.8127 160.486 56.22 161.11 56.532C161.751 56.844 162.436 57 163.164 57C163.597 57 163.987 56.974 164.334 56.922C164.681 56.87 165.079 56.766 165.53 56.61C165.721 56.558 165.851 56.6187 165.92 56.792L165.998 57.728C166.015 57.9707 165.903 58.118 165.66 58.17ZM178.114 51.592C178.114 50.916 178.036 50.2487 177.88 49.59C177.724 48.9313 177.481 48.3333 177.152 47.796C176.493 46.756 175.601 46.236 174.474 46.236C173.295 46.236 172.403 46.756 171.796 47.796C171.467 48.3333 171.224 48.9313 171.068 49.59C170.929 50.2487 170.86 50.916 170.86 51.592C170.86 52.3373 170.929 53.0393 171.068 53.698C171.207 54.3567 171.449 54.92 171.796 55.388C172.559 56.4453 173.451 56.974 174.474 56.974C175.67 56.974 176.563 56.4453 177.152 55.388C177.499 54.92 177.741 54.3567 177.88 53.698C178.036 53.0393 178.114 52.3373 178.114 51.592ZM179.908 51.592C179.908 52.5453 179.795 53.4467 179.57 54.296C179.362 55.128 179.033 55.83 178.582 56.402C178.062 57.078 177.464 57.598 176.788 57.962C176.112 58.3433 175.341 58.534 174.474 58.534C173.607 58.534 172.836 58.3433 172.16 57.962C171.484 57.598 170.886 57.078 170.366 56.402C169.95 55.778 169.629 55.0587 169.404 54.244C169.196 53.4293 169.092 52.5453 169.092 51.592C169.092 49.6333 169.517 48.03 170.366 46.782C171.354 45.378 172.723 44.676 174.474 44.676C175.358 44.676 176.129 44.8493 176.788 45.196C177.464 45.5253 178.062 46.054 178.582 46.782C179.466 48.0473 179.908 49.6507 179.908 51.592ZM191.582 56.506C191.825 56.506 191.946 56.6273 191.946 56.87V57.754C191.946 57.9967 191.825 58.118 191.582 58.118H183.158C182.915 58.118 182.794 57.9967 182.794 57.754V56.87C182.794 56.6273 182.915 56.506 183.158 56.506H186.642V40.62H183.886C183.643 40.62 183.522 40.4987 183.522 40.256V39.372C183.522 39.1293 183.643 39.008 183.886 39.008H188.15C188.393 39.008 188.514 39.1293 188.514 39.372V56.506H191.582Z" fill="white"/>
<defs>
<linearGradient id="paint0_linear_84_184" x1="11" y1="5" x2="51.5" y2="34" gradientUnits="userSpaceOnUse">
<stop stop-color="#37FF00"/>
<stop offset="0.25" stop-color="#197500"/>
<stop offset="0.475" stop-color="#155204"/>
<stop offset="0.76" stop-color="#197500"/>
<stop offset="0.955" stop-color="#30FF29"/>
</linearGradient>
<linearGradient id="paint1_linear_84_184" x1="11" y1="5" x2="51.5" y2="34" gradientUnits="userSpaceOnUse">
<stop stop-color="#37FF00"/>
<stop offset="0.25" stop-color="#197500"/>
<stop offset="0.475" stop-color="#155204"/>
<stop offset="0.76" stop-color="#197500"/>
<stop offset="0.955" stop-color="#30FF29"/>
</linearGradient>
<linearGradient id="paint2_linear_84_184" x1="11" y1="5" x2="51.5" y2="34" gradientUnits="userSpaceOnUse">
<stop stop-color="#37FF00"/>
<stop offset="0.25" stop-color="#197500"/>
<stop offset="0.475" stop-color="#155204"/>
<stop offset="0.76" stop-color="#197500"/>
<stop offset="0.955" stop-color="#30FF29"/>
</linearGradient>
</defs>
</svg>
