<svg width="120" height="108" viewBox="0 0 120 108" fill="none" xmlns="http://www.w3.org/2000/svg">
<path fill-rule="evenodd" clip-rule="evenodd" d="M34.3315 98.5031L50.0538 102.675V97.2197L51.3373 95.9363H60.3213V102.353V106.845H50.6955L38.8235 101.712L34.3315 98.5031Z" fill="#CDBDB2"/>
<path fill-rule="evenodd" clip-rule="evenodd" d="M85.6685 98.5031L70.2673 102.675V97.2197L68.9839 95.9363H59.9999V102.353V106.845H69.6256L81.497 101.712L85.6685 98.5031Z" fill="#CDBDB2"/>
<path fill-rule="evenodd" clip-rule="evenodd" d="M51.3371 86.6317L50.0537 97.2197L51.6577 95.9362H68.3423L70.2674 97.2197L68.984 86.6317L66.4171 85.0271L53.5829 85.3482L51.3371 86.6317Z" fill="#393939"/>
<path fill-rule="evenodd" clip-rule="evenodd" d="M42.6738 15.0803L50.3744 33.0483L53.9041 85.3483H66.4173L70.2675 33.0483L77.3264 15.0803H42.6738Z" fill="#F89C35"/>
<path fill-rule="evenodd" clip-rule="evenodd" d="M8.984 54.546L0 80.5351L22.46 79.2517H36.8983V68.022L36.2566 44.9203L33.048 47.4871L8.984 54.546Z" fill="#F89D35"/>
<path fill-rule="evenodd" clip-rule="evenodd" d="M25.9893 57.4335L52.2995 58.0752L49.4121 71.5512L36.8984 68.3426L25.9893 57.4335Z" fill="#D87C30"/>
<path fill-rule="evenodd" clip-rule="evenodd" d="M25.9893 57.7545L36.8984 68.0219V78.2894L25.9893 57.7545Z" fill="#EA8D3A"/>
<path fill-rule="evenodd" clip-rule="evenodd" d="M36.8984 68.3425L49.7327 71.5511L53.9042 85.3482L51.0162 86.9522L36.8984 78.61V68.3425Z" fill="#F89D35"/>
<path fill-rule="evenodd" clip-rule="evenodd" d="M36.8984 78.61L34.3315 98.5031L51.3373 86.6317L36.8984 78.61Z" fill="#EB8F35"/>
<path fill-rule="evenodd" clip-rule="evenodd" d="M52.2994 58.0752L53.904 85.3483L49.0908 71.3909L52.2994 58.0752Z" fill="#EA8E3A"/>
<path fill-rule="evenodd" clip-rule="evenodd" d="M22.1387 78.9311L36.8981 78.61L34.3312 98.5031L22.1387 78.9311Z" fill="#D87C30"/>
<path fill-rule="evenodd" clip-rule="evenodd" d="M7.05886 107.167L34.3314 98.5032L22.1389 78.9312L0 80.5352L7.05886 107.167Z" fill="#EB8F35"/>
<path fill-rule="evenodd" clip-rule="evenodd" d="M50.3744 33.0483L36.5778 44.5992L25.9893 57.4335L52.2995 58.3963L50.3744 33.0483Z" fill="#E8821E"/>
<path fill-rule="evenodd" clip-rule="evenodd" d="M34.3315 98.5031L51.3373 86.6317L50.0538 96.8991V102.675L38.503 100.428L34.3315 98.5031Z" fill="#DFCEC3"/>
<path fill-rule="evenodd" clip-rule="evenodd" d="M85.6685 98.5031L68.9839 86.6317L70.2673 96.8991V102.675L81.8182 100.428L85.6685 98.5031Z" fill="#DFCEC3"/>
<path fill-rule="evenodd" clip-rule="evenodd" d="M45.2408 63.8506L48.7705 71.2306L36.2568 68.022L45.2408 63.8506Z" fill="#393939"/>
<path fill-rule="evenodd" clip-rule="evenodd" d="M6.73779 0.000244141L50.3744 33.0482L42.9949 15.0802L6.73779 0.000244141Z" fill="#E88F35"/>
<path fill-rule="evenodd" clip-rule="evenodd" d="M6.73783 0L0.962402 17.6471L4.17097 36.8986L1.92497 38.182L5.13355 41.0697L2.56669 43.3157L6.09612 46.5243L3.85012 48.4494L8.98383 54.8666L33.0481 47.4869C44.8129 38.075 50.5883 33.2622 50.3744 33.0483C50.1605 32.8344 35.615 21.8183 6.73783 0Z" fill="#8E5A30"/>
<path fill-rule="evenodd" clip-rule="evenodd" d="M111.016 54.546L120 80.5351L97.54 79.2517H83.1017V68.022L83.7434 44.9203L86.952 47.4871L111.016 54.546Z" fill="#F89D35"/>
<path fill-rule="evenodd" clip-rule="evenodd" d="M94.0107 57.4335L67.7005 58.0752L70.5879 71.5512L83.1016 68.3426L94.0107 57.4335Z" fill="#D87C30"/>
<path fill-rule="evenodd" clip-rule="evenodd" d="M94.0107 57.7545L83.1016 68.0219V78.2894L94.0107 57.7545Z" fill="#EA8D3A"/>
<path fill-rule="evenodd" clip-rule="evenodd" d="M83.1016 68.3425L70.2673 71.5511L66.0958 85.3482L68.9838 86.9522L83.1016 78.61V68.3425Z" fill="#F89D35"/>
<path fill-rule="evenodd" clip-rule="evenodd" d="M83.1016 78.61L85.6685 98.5031L68.9839 86.9523L83.1016 78.61Z" fill="#EB8F35"/>
<path fill-rule="evenodd" clip-rule="evenodd" d="M67.7006 58.0752L66.096 85.3483L70.9092 71.3909L67.7006 58.0752Z" fill="#EA8E3A"/>
<path fill-rule="evenodd" clip-rule="evenodd" d="M97.8613 78.9311L83.1019 78.61L85.6688 98.5031L97.8613 78.9311Z" fill="#D87C30"/>
<path fill-rule="evenodd" clip-rule="evenodd" d="M112.941 107.167L85.6686 98.5032L97.8611 78.9312L120 80.5352L112.941 107.167Z" fill="#EB8F35"/>
<path fill-rule="evenodd" clip-rule="evenodd" d="M69.6256 33.0483L83.4222 44.5992L94.0107 57.4335L67.7005 58.3963L69.6256 33.0483Z" fill="#E8821E"/>
<path fill-rule="evenodd" clip-rule="evenodd" d="M74.7592 63.8506L71.2295 71.2306L83.7432 68.022L74.7592 63.8506Z" fill="#393939"/>
<path fill-rule="evenodd" clip-rule="evenodd" d="M113.262 0.000244141L69.6256 33.0482L77.0051 15.0802L113.262 0.000244141Z" fill="#E88F35"/>
<path fill-rule="evenodd" clip-rule="evenodd" d="M113.262 0L119.038 17.6471L115.829 36.8986L118.075 38.182L114.866 41.0697L117.433 43.3157L113.904 46.5243L116.15 48.4494L111.016 54.8666L86.9519 47.4869C75.1871 38.075 69.4117 33.2622 69.6256 33.0483C69.8395 32.8344 84.385 21.8183 113.262 0Z" fill="#8E5A30"/>
</svg>
