<svg width="79" height="19" viewBox="0 0 79 19" fill="none" xmlns="http://www.w3.org/2000/svg">
<path d="M69.5418 18.0833C74.2823 18.0833 78.1252 14.2404 78.1252 9.49996C78.1252 4.75951 74.2823 0.916626 69.5418 0.916626C64.8014 0.916626 60.9585 4.75951 60.9585 9.49996C60.9585 14.2404 64.8014 18.0833 69.5418 18.0833Z" fill="white"/>
<path d="M39.4998 18.0833C44.2403 18.0833 48.0832 14.2404 48.0832 9.49996C48.0832 4.75951 44.2403 0.916626 39.4998 0.916626C34.7594 0.916626 30.9165 4.75951 30.9165 9.49996C30.9165 14.2404 34.7594 18.0833 39.4998 18.0833Z" fill="white"/>
<path d="M9.45833 18.0833C14.1988 18.0833 18.0417 14.2404 18.0417 9.49996C18.0417 4.75951 14.1988 0.916626 9.45833 0.916626C4.71789 0.916626 0.875 4.75951 0.875 9.49996C0.875 14.2404 4.71789 18.0833 9.45833 18.0833Z" fill="white"/>
</svg>
